# xmcd
#
# Track frame offsets:
#	150
#	16040
#	37637
#	56065
#	95875
#	124460
#	159142
#	195670
#	226540
#	268052
#	280792
#
# Disc length: 3835 seconds
#
# Revision: 1
# Processed by: cddbd v1.5.1PL0 Copyright (c) Steve Scherf et al.
# Submitted via: CDex 1.50Beta5
#
DISCID=860ef90b
DTITLE=??? - 魔法陣グルグル 大迷惑!熱血妖精の恩返し
DYEAR=1900
DGENRE=
TTITLE0=キタキタおやじの願いごと
TTITLE1=オープニング
TTITLE2=熱血妖精出現!
TTITLE3=いざ、妖精の村へ
TTITLE4=タテじわネズミに喜びを
TTITLE5=怒りを忘れたカセギ
TTITLE6=ライライを哀しませるのは誰だ
TTITLE7=ジーンとしてみろカセギシルバー
TTITLE8=決戦!最上階のモンスター
TTITLE9=妖精の贈り物
TTITLE10=エンディング
EXTD=
EXTT0=
EXTT1=
EXTT2=
EXTT3=
EXTT4=
EXTT5=
EXTT6=
EXTT7=
EXTT8=
EXTT9=
EXTT10=
PLAYORDER=
